<mxfile host="app.diagrams.net" modified="2022-11-10T08:07:58.824Z" agent="5.0 (Windows NT 10.0; Win64; x64) AppleWebKit/537.36 (KHTML, like Gecko) Chrome/107.0.0.0 Safari/537.36" etag="DhVWgg_wSwi2HPI_zTzX" version="20.5.3" type="github">
  <diagram id="C5RBs43oDa-KdzZeNtuy" name="Page-1">
    <mxGraphModel dx="579" dy="307" grid="1" gridSize="10" guides="1" tooltips="1" connect="1" arrows="0" fold="1" page="1" pageScale="1" pageWidth="827" pageHeight="1169" math="0" shadow="0">
      <root>
        <mxCell id="WIyWlLk6GJQsqaUBKTNV-0" />
        <mxCell id="WIyWlLk6GJQsqaUBKTNV-1" parent="WIyWlLk6GJQsqaUBKTNV-0" />
        <mxCell id="Qb6-qISCPBRjFz87O9aS-10" style="edgeStyle=orthogonalEdgeStyle;rounded=0;orthogonalLoop=1;jettySize=auto;html=1;exitX=0.5;exitY=1;exitDx=0;exitDy=0;entryX=0.5;entryY=0;entryDx=0;entryDy=0;" edge="1" parent="WIyWlLk6GJQsqaUBKTNV-1" source="Qb6-qISCPBRjFz87O9aS-0" target="Qb6-qISCPBRjFz87O9aS-9">
          <mxGeometry relative="1" as="geometry" />
        </mxCell>
        <mxCell id="Qb6-qISCPBRjFz87O9aS-0" value="long horas&lt;br&gt;long minutos&lt;br&gt;long segundos" style="rounded=1;whiteSpace=wrap;html=1;fillColor=#1ba1e2;fontColor=#ffffff;strokeColor=#006EAF;" vertex="1" parent="WIyWlLk6GJQsqaUBKTNV-1">
          <mxGeometry x="352" y="50" width="120" height="60" as="geometry" />
        </mxCell>
        <mxCell id="Qb6-qISCPBRjFz87O9aS-12" style="edgeStyle=orthogonalEdgeStyle;rounded=0;orthogonalLoop=1;jettySize=auto;html=1;exitX=0.5;exitY=1;exitDx=0;exitDy=0;entryX=0.5;entryY=0;entryDx=0;entryDy=0;" edge="1" parent="WIyWlLk6GJQsqaUBKTNV-1" source="Qb6-qISCPBRjFz87O9aS-1" target="Qb6-qISCPBRjFz87O9aS-9">
          <mxGeometry relative="1" as="geometry">
            <Array as="points">
              <mxPoint x="278" y="120" />
              <mxPoint x="412" y="120" />
            </Array>
          </mxGeometry>
        </mxCell>
        <mxCell id="Qb6-qISCPBRjFz87O9aS-1" value="final long INCREMENTO" style="rounded=1;whiteSpace=wrap;html=1;fillColor=#1ba1e2;fontColor=#ffffff;strokeColor=#006EAF;" vertex="1" parent="WIyWlLk6GJQsqaUBKTNV-1">
          <mxGeometry x="218" y="50" width="120" height="60" as="geometry" />
        </mxCell>
        <mxCell id="Qb6-qISCPBRjFz87O9aS-11" style="edgeStyle=orthogonalEdgeStyle;rounded=0;orthogonalLoop=1;jettySize=auto;html=1;exitX=0.5;exitY=1;exitDx=0;exitDy=0;entryX=0.5;entryY=0;entryDx=0;entryDy=0;" edge="1" parent="WIyWlLk6GJQsqaUBKTNV-1" source="Qb6-qISCPBRjFz87O9aS-2" target="Qb6-qISCPBRjFz87O9aS-9">
          <mxGeometry relative="1" as="geometry">
            <Array as="points">
              <mxPoint x="548" y="120" />
              <mxPoint x="412" y="120" />
            </Array>
          </mxGeometry>
        </mxCell>
        <mxCell id="Qb6-qISCPBRjFz87O9aS-2" value="final Scanner read" style="rounded=1;whiteSpace=wrap;html=1;fillColor=#1ba1e2;fontColor=#ffffff;strokeColor=#006EAF;" vertex="1" parent="WIyWlLk6GJQsqaUBKTNV-1">
          <mxGeometry x="488" y="50" width="120" height="60" as="geometry" />
        </mxCell>
        <mxCell id="Qb6-qISCPBRjFz87O9aS-5" style="edgeStyle=orthogonalEdgeStyle;rounded=0;orthogonalLoop=1;jettySize=auto;html=1;exitX=0.5;exitY=1;exitDx=0;exitDy=0;entryX=0.5;entryY=0;entryDx=0;entryDy=0;" edge="1" parent="WIyWlLk6GJQsqaUBKTNV-1" source="Qb6-qISCPBRjFz87O9aS-3" target="Qb6-qISCPBRjFz87O9aS-0">
          <mxGeometry relative="1" as="geometry" />
        </mxCell>
        <mxCell id="Qb6-qISCPBRjFz87O9aS-6" style="edgeStyle=orthogonalEdgeStyle;rounded=0;orthogonalLoop=1;jettySize=auto;html=1;exitX=1;exitY=0.5;exitDx=0;exitDy=0;entryX=0.5;entryY=0;entryDx=0;entryDy=0;" edge="1" parent="WIyWlLk6GJQsqaUBKTNV-1" source="Qb6-qISCPBRjFz87O9aS-3" target="Qb6-qISCPBRjFz87O9aS-2">
          <mxGeometry relative="1" as="geometry" />
        </mxCell>
        <mxCell id="Qb6-qISCPBRjFz87O9aS-7" style="edgeStyle=orthogonalEdgeStyle;rounded=0;orthogonalLoop=1;jettySize=auto;html=1;exitX=0;exitY=0.5;exitDx=0;exitDy=0;entryX=0.5;entryY=0;entryDx=0;entryDy=0;" edge="1" parent="WIyWlLk6GJQsqaUBKTNV-1" source="Qb6-qISCPBRjFz87O9aS-3" target="Qb6-qISCPBRjFz87O9aS-1">
          <mxGeometry relative="1" as="geometry" />
        </mxCell>
        <mxCell id="Qb6-qISCPBRjFz87O9aS-3" value="" style="ellipse;whiteSpace=wrap;html=1;aspect=fixed;fillColor=#60a917;fontColor=#ffffff;strokeColor=#2D7600;" vertex="1" parent="WIyWlLk6GJQsqaUBKTNV-1">
          <mxGeometry x="402" width="20" height="20" as="geometry" />
        </mxCell>
        <mxCell id="Qb6-qISCPBRjFz87O9aS-14" style="edgeStyle=orthogonalEdgeStyle;rounded=0;orthogonalLoop=1;jettySize=auto;html=1;exitX=0.5;exitY=1;exitDx=0;exitDy=0;entryX=0.5;entryY=0;entryDx=0;entryDy=0;" edge="1" parent="WIyWlLk6GJQsqaUBKTNV-1" source="Qb6-qISCPBRjFz87O9aS-9" target="Qb6-qISCPBRjFz87O9aS-13">
          <mxGeometry relative="1" as="geometry" />
        </mxCell>
        <mxCell id="Qb6-qISCPBRjFz87O9aS-9" value="out (Introduce las Horas)" style="rounded=1;whiteSpace=wrap;html=1;fillColor=#60a917;fontColor=#ffffff;strokeColor=#2D7600;" vertex="1" parent="WIyWlLk6GJQsqaUBKTNV-1">
          <mxGeometry x="352" y="140" width="120" height="60" as="geometry" />
        </mxCell>
        <mxCell id="Qb6-qISCPBRjFz87O9aS-21" style="edgeStyle=orthogonalEdgeStyle;rounded=0;orthogonalLoop=1;jettySize=auto;html=1;exitX=0.5;exitY=1;exitDx=0;exitDy=0;entryX=0.5;entryY=0;entryDx=0;entryDy=0;" edge="1" parent="WIyWlLk6GJQsqaUBKTNV-1" source="Qb6-qISCPBRjFz87O9aS-13" target="Qb6-qISCPBRjFz87O9aS-15">
          <mxGeometry relative="1" as="geometry" />
        </mxCell>
        <mxCell id="Qb6-qISCPBRjFz87O9aS-13" value="horas = read.nextLong" style="rounded=1;whiteSpace=wrap;html=1;fillColor=#a20025;fontColor=#ffffff;strokeColor=#6F0000;" vertex="1" parent="WIyWlLk6GJQsqaUBKTNV-1">
          <mxGeometry x="352" y="220" width="120" height="60" as="geometry" />
        </mxCell>
        <mxCell id="Qb6-qISCPBRjFz87O9aS-22" style="edgeStyle=orthogonalEdgeStyle;rounded=0;orthogonalLoop=1;jettySize=auto;html=1;exitX=0.5;exitY=1;exitDx=0;exitDy=0;entryX=0.5;entryY=0;entryDx=0;entryDy=0;" edge="1" parent="WIyWlLk6GJQsqaUBKTNV-1" source="Qb6-qISCPBRjFz87O9aS-15" target="Qb6-qISCPBRjFz87O9aS-16">
          <mxGeometry relative="1" as="geometry" />
        </mxCell>
        <mxCell id="Qb6-qISCPBRjFz87O9aS-15" value="out (Introduce los Minutos)" style="rounded=1;whiteSpace=wrap;html=1;fillColor=#60a917;fontColor=#ffffff;strokeColor=#2D7600;" vertex="1" parent="WIyWlLk6GJQsqaUBKTNV-1">
          <mxGeometry x="352" y="300" width="120" height="60" as="geometry" />
        </mxCell>
        <mxCell id="Qb6-qISCPBRjFz87O9aS-23" style="edgeStyle=orthogonalEdgeStyle;rounded=0;orthogonalLoop=1;jettySize=auto;html=1;exitX=0.5;exitY=1;exitDx=0;exitDy=0;entryX=0.5;entryY=0;entryDx=0;entryDy=0;" edge="1" parent="WIyWlLk6GJQsqaUBKTNV-1" source="Qb6-qISCPBRjFz87O9aS-16" target="Qb6-qISCPBRjFz87O9aS-17">
          <mxGeometry relative="1" as="geometry" />
        </mxCell>
        <mxCell id="Qb6-qISCPBRjFz87O9aS-16" value="minutos = read.nextLong" style="rounded=1;whiteSpace=wrap;html=1;fillColor=#a20025;fontColor=#ffffff;strokeColor=#6F0000;" vertex="1" parent="WIyWlLk6GJQsqaUBKTNV-1">
          <mxGeometry x="352" y="380" width="120" height="60" as="geometry" />
        </mxCell>
        <mxCell id="Qb6-qISCPBRjFz87O9aS-24" style="edgeStyle=orthogonalEdgeStyle;rounded=0;orthogonalLoop=1;jettySize=auto;html=1;exitX=0.5;exitY=1;exitDx=0;exitDy=0;entryX=0.5;entryY=0;entryDx=0;entryDy=0;" edge="1" parent="WIyWlLk6GJQsqaUBKTNV-1" source="Qb6-qISCPBRjFz87O9aS-17" target="Qb6-qISCPBRjFz87O9aS-18">
          <mxGeometry relative="1" as="geometry" />
        </mxCell>
        <mxCell id="Qb6-qISCPBRjFz87O9aS-17" value="out (Introduce los Segundos)" style="rounded=1;whiteSpace=wrap;html=1;fillColor=#60a917;fontColor=#ffffff;strokeColor=#2D7600;" vertex="1" parent="WIyWlLk6GJQsqaUBKTNV-1">
          <mxGeometry x="352" y="460" width="120" height="60" as="geometry" />
        </mxCell>
        <mxCell id="Qb6-qISCPBRjFz87O9aS-25" style="edgeStyle=orthogonalEdgeStyle;rounded=0;orthogonalLoop=1;jettySize=auto;html=1;exitX=0.5;exitY=1;exitDx=0;exitDy=0;entryX=0.5;entryY=0;entryDx=0;entryDy=0;" edge="1" parent="WIyWlLk6GJQsqaUBKTNV-1" source="Qb6-qISCPBRjFz87O9aS-18" target="Qb6-qISCPBRjFz87O9aS-19">
          <mxGeometry relative="1" as="geometry" />
        </mxCell>
        <mxCell id="Qb6-qISCPBRjFz87O9aS-18" value="segundos = read.nextLong" style="rounded=1;whiteSpace=wrap;html=1;fillColor=#a20025;fontColor=#ffffff;strokeColor=#6F0000;" vertex="1" parent="WIyWlLk6GJQsqaUBKTNV-1">
          <mxGeometry x="352" y="540" width="120" height="60" as="geometry" />
        </mxCell>
        <mxCell id="Qb6-qISCPBRjFz87O9aS-26" style="edgeStyle=orthogonalEdgeStyle;rounded=0;orthogonalLoop=1;jettySize=auto;html=1;exitX=0.5;exitY=1;exitDx=0;exitDy=0;entryX=0.5;entryY=0;entryDx=0;entryDy=0;" edge="1" parent="WIyWlLk6GJQsqaUBKTNV-1" source="Qb6-qISCPBRjFz87O9aS-19" target="Qb6-qISCPBRjFz87O9aS-20">
          <mxGeometry relative="1" as="geometry" />
        </mxCell>
        <mxCell id="Qb6-qISCPBRjFz87O9aS-19" value="out (Introduce el Incremento)" style="rounded=1;whiteSpace=wrap;html=1;fillColor=#60a917;fontColor=#ffffff;strokeColor=#2D7600;" vertex="1" parent="WIyWlLk6GJQsqaUBKTNV-1">
          <mxGeometry x="352" y="620" width="120" height="60" as="geometry" />
        </mxCell>
        <mxCell id="Qb6-qISCPBRjFz87O9aS-29" style="edgeStyle=orthogonalEdgeStyle;rounded=0;orthogonalLoop=1;jettySize=auto;html=1;exitX=0.5;exitY=1;exitDx=0;exitDy=0;entryX=0.5;entryY=0;entryDx=0;entryDy=0;" edge="1" parent="WIyWlLk6GJQsqaUBKTNV-1" source="Qb6-qISCPBRjFz87O9aS-20" target="Qb6-qISCPBRjFz87O9aS-27">
          <mxGeometry relative="1" as="geometry" />
        </mxCell>
        <mxCell id="Qb6-qISCPBRjFz87O9aS-20" value="INCREMENTO = read.nextLong" style="rounded=1;whiteSpace=wrap;html=1;fillColor=#a20025;fontColor=#ffffff;strokeColor=#6F0000;" vertex="1" parent="WIyWlLk6GJQsqaUBKTNV-1">
          <mxGeometry x="352" y="700" width="120" height="60" as="geometry" />
        </mxCell>
        <mxCell id="Qb6-qISCPBRjFz87O9aS-27" value="segundos += INCREMENTO" style="shape=process;whiteSpace=wrap;html=1;backgroundOutline=1;fillColor=#1ba1e2;fontColor=#ffffff;strokeColor=#006EAF;" vertex="1" parent="WIyWlLk6GJQsqaUBKTNV-1">
          <mxGeometry x="352" y="780" width="120" height="60" as="geometry" />
        </mxCell>
      </root>
    </mxGraphModel>
  </diagram>
</mxfile>
